<?xml version="1.0" standalone="no"?>
<!DOCTYPE svg PUBLIC "-//W3C//DTD SVG 20010904//EN"
 "http://www.w3.org/TR/2001/REC-SVG-20010904/DTD/svg10.dtd">
<svg version="1.0" xmlns="http://www.w3.org/2000/svg"
 width="225.000000pt" height="225.000000pt" viewBox="0 0 225.000000 225.000000"
 preserveAspectRatio="xMidYMid meet">
<metadata>
Created by potrace 1.10, written by Peter Selinger 2001-2011
</metadata>
<g transform="translate(0.000000,225.000000) scale(0.100000,-0.100000)"
fill="#000000" stroke="none">
<path d="M725 2010 c-28 -11 -72 -60 -84 -93 -6 -16 -11 -67 -11 -115 -1 -86
-1 -88 -38 -129 -30 -34 -48 -44 -102 -57 -219 -56 -365 -273 -330 -493 13
-80 23 -100 214 -435 111 -197 146 -266 146 -293 0 -35 0 -35 -45 -35 -34 0
-47 -5 -55 -19 -15 -29 -13 -116 4 -130 18 -15 1645 -16 1660 -1 12 12 8 121
-6 137 -6 7 -28 13 -49 13 l-39 0 0 363 0 362 31 14 c16 7 42 31 57 54 25 37
27 50 30 157 l4 116 -115 146 -115 145 -4 101 c-4 112 -15 137 -78 180 l-33
22 -511 -1 c-281 0 -520 -4 -531 -9z m1043 -48 c43 -24 62 -70 62 -149 l0 -73
-576 0 -576 0 3 84 c4 92 17 117 73 141 42 18 981 15 1014 -3z m-978 -277 c0
-2 -7 -22 -15 -43 l-16 -39 -52 14 c-28 7 -60 13 -70 13 -17 0 -17 2 5 29 21
27 29 30 86 30 34 1 62 -1 62 -4z m220 -7 c0 -7 -9 -50 -20 -96 -11 -46 -20
-92 -20 -103 0 -27 -7 -24 -56 24 -24 24 -59 52 -78 62 l-33 18 21 53 21 54
83 0 c59 0 82 -4 82 -12z m220 -223 c0 -252 -4 -276 -52 -309 -26 -18 -80 -21
-109 -6 -15 8 -19 22 -19 58 0 51 -19 133 -40 172 -11 20 -7 45 21 172 l34
148 83 0 82 0 0 -235z m242 102 c32 -156 42 -308 23 -353 -19 -45 -60 -74
-107 -74 -32 0 -47 7 -74 34 l-34 34 0 246 0 246 83 0 82 0 27 -133z m249 -12
c56 -134 59 -143 59 -228 0 -131 -32 -187 -108 -187 -91 0 -122 56 -122 218 0
83 -7 134 -29 225 l-28 118 85 -3 85 -3 58 -140z m230 5 l108 -135 0 -92 c1
-50 -3 -103 -9 -118 -29 -77 -121 -101 -182 -46 l-33 29 -6 124 c-5 113 -8
130 -43 213 -21 49 -47 107 -57 128 l-20 38 67 -3 68 -3 107 -135z m-1180 -8
c79 -38 159 -119 195 -197 34 -74 42 -181 21 -255 -9 -30 -99 -201 -201 -379
l-184 -323 -170 298 c-208 368 -207 366 -222 440 -28 143 51 317 178 391 86
51 139 64 233 60 70 -4 97 -10 150 -35z m1099 -447 c16 -8 38 -15 50 -15 20 0
20 -4 20 -360 l0 -360 -425 0 -425 0 0 328 c0 347 -1 352 -46 352 -21 0 -22 2
-13 30 9 25 14 28 29 20 47 -25 133 -6 174 39 l19 21 26 -24 c38 -35 65 -46
110 -46 52 0 80 11 114 46 27 27 28 27 42 7 50 -72 205 -67 245 7 11 21 11 21
32 -5 11 -14 33 -32 48 -40z m-830 -420 l0 -315 -200 0 -199 0 20 35 c14 23
25 33 33 27 6 -5 67 -9 136 -10 159 -2 160 -1 160 118 0 53 -5 91 -12 98 -7 7
-44 12 -95 12 l-82 0 20 35 c20 34 23 35 83 35 35 0 67 5 74 12 15 15 16 180
1 195 -16 16 16 73 41 73 19 0 20 -8 20 -315z m-100 141 l0 -54 -35 -4 c-20
-2 -34 -2 -33 1 26 52 59 111 63 111 3 0 5 -24 5 -54z m0 -291 l0 -65 -105 0
-105 0 0 26 c0 14 10 43 23 64 l22 40 83 0 82 0 0 -65z m-328 -162 c28 -8 10
-23 -28 -23 -22 0 -34 5 -34 13 0 20 12 28 29 21 9 -3 24 -9 33 -11z m1430
-85 l-4 -33 -789 0 -789 0 0 33 0 32 793 0 793 0 -4 -32z"/>
<path d="M980 1927 c-36 -18 -35 -67 3 -85 41 -20 34 -48 -8 -32 -19 7 -24 5
-28 -11 -11 -42 85 -37 105 6 13 28 -1 51 -39 66 -32 12 -30 33 3 26 16 -3 28
0 31 10 6 16 5 19 -22 27 -11 3 -31 0 -45 -7z"/>
<path d="M1303 1930 c-47 -20 -59 -101 -20 -138 31 -29 72 -28 102 3 63 62 -2
168 -82 135z m55 -42 c17 -17 15 -54 -3 -72 -30 -30 -63 9 -51 60 7 26 34 32
54 12z"/>
<path d="M1090 1850 c0 -73 2 -80 20 -80 16 0 20 7 20 35 0 31 3 35 25 35 22
0 25 -4 25 -35 0 -28 4 -35 19 -35 17 0 20 9 23 80 3 77 2 80 -19 80 -19 0
-23 -6 -23 -30 0 -25 -4 -30 -25 -30 -21 0 -25 5 -25 30 0 23 -4 30 -20 30
-18 0 -20 -7 -20 -80z"/>
<path d="M1440 1849 c0 -78 1 -80 23 -77 17 2 21 9 19 31 -2 23 1 27 22 27 31
0 56 24 56 54 0 34 -19 46 -72 46 l-48 0 0 -81z m78 34 c-5 -26 -38 -29 -38
-4 0 15 6 21 21 21 14 0 19 -5 17 -17z"/>
<path d="M519 1456 c-151 -54 -224 -195 -180 -349 18 -61 85 -137 148 -167
145 -68 334 14 378 164 33 109 10 203 -69 282 -77 77 -183 104 -277 70z m155
-48 c58 -18 128 -90 145 -151 53 -189 -142 -357 -314 -270 -126 64 -167 215
-89 333 55 83 157 118 258 88z"/>
<path d="M1255 1030 c-11 -4 -31 -20 -45 -35 -24 -26 -25 -32 -28 -186 -3
-143 -5 -159 -21 -159 -9 0 -22 -5 -29 -12 -16 -16 -16 -150 0 -166 9 -9 108
-12 385 -12 427 0 393 -8 393 98 0 62 -17 92 -53 92 -15 0 -17 17 -17 150 0
243 4 240 -332 239 -128 0 -242 -4 -253 -9z m509 -62 c25 -22 25 -27 28 -171
l3 -147 -282 0 -283 0 0 145 c0 142 1 147 25 170 l24 25 230 0 c224 0 231 -1
255 -22z m96 -413 l0 -45 -345 0 -345 0 0 45 0 45 345 0 345 0 0 -45z"/>
</g>
</svg>
